# Blender v2.78 (sub 0) OBJ File: ''
# www.blender.org
mtllib untitled.mtl
o Cube
v 1.251511 -1.216326 -1.302800
v 1.251511 -1.216326 0.697200
v -0.748489 -1.216326 0.697200
v -0.748488 -1.216326 -1.302800
v 1.251512 0.783674 -1.302799
v 1.820299 0.382374 -0.479756
v 0.023122 -0.024681 -0.386422
v -0.748489 0.783674 -1.302800
v 0.336444 -0.739671 -0.074747
v 0.847605 -1.301816 -0.740819
v 0.561063 -0.960764 -0.417836
v 0.209090 -0.042714 -0.991209
v 0.205069 -0.376294 -0.915493
v 0.205070 -0.376294 -0.915494
v 0.653942 -0.937883 -0.460430
v 0.653942 -0.937883 -0.460430
v 0.468092 0.052894 -0.827524
v 0.291904 -0.572346 -0.806862
v 0.314006 -0.991649 -0.692165
vt 0.0000 0.6667
vt 0.3333 1.0000
vt 0.0000 1.0000
vt 0.3333 0.3333
vt 0.0000 0.6667
vt 0.0000 0.3333
vt 0.6667 0.3333
vt 0.3333 0.0000
vt 0.6667 0.0000
vt 0.0000 0.3333
vt 0.3333 0.0000
vt 0.3333 0.3333
vt 0.6667 0.3333
vt 1.0000 0.0000
vt 1.0000 0.3333
vt 0.3333 0.6667
vt 0.3333 0.6667
vt 0.0000 0.0000
vt 0.6667 0.0000
vt 0.6667 0.6667
vn 0.0000 -1.0000 0.0000
vn -0.1627 0.8379 0.5210
vn 0.9421 -0.3352 0.0000
vn -0.0000 0.6728 0.7398
vn -0.8394 0.5435 -0.0000
vn 0.0000 0.0000 -1.0000
vn -0.0000 0.7499 0.6615
vn 0.8227 0.0000 -0.5685
vn -0.0980 0.6124 0.7845
vn -0.7649 -0.0000 0.6441
usemtl Material
s off
f 1/1/1 3/2/1 4/3/1
f 5/4/2 7/5/2 6/6/2
f 1/7/3 6/8/3 2/9/3
f 2/10/4 7/11/4 3/12/4
f 7/13/5 4/14/5 3/15/5
f 1/7/6 8/16/6 5/4/6
f 1/1/1 2/17/1 3/2/1
f 5/4/7 8/16/7 7/5/7
f 1/7/8 5/4/8 6/8/8
f 2/10/9 6/18/9 7/11/9
f 7/13/10 8/19/10 4/14/10
f 1/7/6 4/20/6 8/16/6
l 7 9
l 9 10
l 10 11
l 11 12
l 12 13
l 13 14
l 14 15
l 15 16
l 16 17
l 17 18
l 18 19
